<svg xmlns="http://www.w3.org/2000/svg" xmlns:xlink="http://www.w3.org/1999/xlink" width="1920" height="1080" viewBox="0 0 1920 1080">
  <defs>
    <style>
      .cls-1 {
        clip-path: url(#clip-Web_1920_1);
      }

      .cls-2 {
        fill: none;
        stroke: rgba(48,48,48,0.75);
      }
    </style>
    <clipPath id="clip-Web_1920_1">
      <rect width="1920" height="1080"/>
    </clipPath>
  </defs>
  <g id="Web_1920_1" data-name="Web 1920 – 1" class="cls-1">
    <g id="Group_1" data-name="Group 1" transform="translate(4 118)">
      <path id="Path_5" data-name="Path 5" class="cls-2" d="M515.963-1089.742l65.9-34.348s187.672,5.995,229.4,0c49.271-7.079,126.215-25.3,156.33-65.268,81.391-108.012,157.507-251.824,277.758-164.313s231.629,264.064,517.112,164.313c131.036-45.785,200.637-141.079,261.276-235.217,71.9-111.619,131.426-221.751,265.015-248.237,246.929-48.957,474.043,579.092,474.043,579.092" transform="translate(-680 1909)"/>
      <path id="Path_6" data-name="Path 6" class="cls-2" d="M669-1132.139s217.2,50.793,298.594-57.219,157.507-251.824,277.758-164.313,231.629,264.064,517.112,164.313c131.036-45.785,200.637-141.079,261.276-235.217,71.9-111.619,131.426-221.751,265.015-248.237,246.929-48.957,523.043,660.789,523.043,660.789" transform="translate(-701 1901)"/>
      <path id="Path_7" data-name="Path 7" class="cls-2" d="M669-1132.139s243.625,24.956,325.016-83.056,131.085-225.987,251.336-138.476,231.629,264.064,517.112,164.313c131.036-45.785,200.637-141.079,261.276-235.217,71.9-111.619,131.426-221.751,265.015-248.237C2535.685-1721.769,2854.7-945.93,2854.7-945.93" transform="translate(-718 1892)"/>
      <path id="Path_8" data-name="Path 8" class="cls-2" d="M669-1132.139s242.11,24.956,322.995-83.056,130.269-225.987,249.773-138.476,230.189,264.064,513.9,164.313c130.221-45.785,199.389-141.079,259.651-235.217,71.453-111.619,130.608-221.751,263.367-248.237,245.393-48.957,626.07,852.886,626.07,852.886" transform="translate(-729 1888)"/>
      <path id="Path_10" data-name="Path 10" class="cls-2" d="M571.565-1525.09s104.351,518.1,500.293,546.862,415.219-555.665,627.265-490.491,357.082,436.332,628.489,362.9,293.744-456.833,293.744-456.833" transform="translate(-598 1916)"/>
      <path id="Path_11" data-name="Path 11" class="cls-2" d="M551.769-1622.726s124.148,615.736,520.09,644.5,415.219-555.665,627.265-490.491,357.082,436.332,628.489,362.9,293.744-456.833,293.744-456.833" transform="translate(-577 1905)"/>
      <path id="Path_12" data-name="Path 12" class="cls-2" d="M527.385-1730.268s148.531,723.278,544.473,752.04,415.219-555.665,627.265-490.491,357.082,436.332,628.489,362.9,293.744-456.833,293.744-456.833" transform="translate(-552 1897)"/>
      <path id="Path_16" data-name="Path 16" class="cls-2" d="M562.771-1133.756S833.5-1094.5,914.89-1202.515s210.211-238.667,330.462-151.156,231.629,264.064,517.112,164.313c131.036-45.785,200.637-141.079,261.276-235.217,71.9-111.619,131.426-221.751,265.015-248.237,246.929-48.957,311.185,380.338,311.185,380.338" transform="translate(-595 1942)"/>
      <path id="Path_17" data-name="Path 17" class="cls-2" d="M560.314-1135.84S833.5-1094.5,914.89-1202.515s210.211-238.667,330.462-151.156,231.629,264.064,517.112,164.313c131.036-45.785,200.637-141.079,261.276-235.217,71.9-111.619,131.426-221.751,265.015-248.237,246.929-48.957,311.185,380.338,311.185,380.338" transform="translate(-577 1960)"/>
      <path id="Path_18" data-name="Path 18" class="cls-2" d="M551.773-1150.735S833.5-1094.5,914.89-1202.515s210.211-238.667,330.462-151.156,231.629,264.064,517.112,164.313c131.036-45.785,200.637-141.079,261.276-235.217,71.9-111.619,131.426-221.751,265.015-248.237,246.929-48.957,311.185,380.338,311.185,380.338" transform="translate(-563 1984)"/>
      <path id="Path_19" data-name="Path 19" class="cls-2" d="M497.485-1819.8s178.431,812.805,574.373,841.568,415.219-555.665,627.265-490.491,357.082,436.332,628.489,362.9,293.744-456.833,293.744-456.833" transform="translate(-527 1894)"/>
      <path id="Path_20" data-name="Path 20" class="cls-2" d="M492.76-1841.221s183.156,834.231,579.1,862.994,415.219-555.665,627.265-490.491,357.082,436.332,628.489,362.9,293.744-456.833,293.744-456.833" transform="translate(-504 1887)"/>
      <path id="Path_21" data-name="Path 21" class="cls-2" d="M551.773-1150.735S833.5-1094.5,914.89-1202.515s210.211-238.667,330.462-151.156,231.629,264.064,517.112,164.313c131.036-45.785,200.637-141.079,261.276-235.217,71.9-111.619,131.426-221.751,265.015-248.237,246.929-48.957,311.185,380.338,311.185,380.338" transform="translate(-536 2002)"/>
      <path id="Path_22" data-name="Path 22" class="cls-2" d="M464.855-1169.465S833.5-1094.5,914.89-1202.515s210.211-238.667,330.462-151.156,231.629,264.064,517.112,164.313c131.036-45.785,200.637-141.079,261.276-235.217,71.9-111.619,131.426-221.751,265.015-248.237,246.929-48.957,311.185,380.338,311.185,380.338" transform="translate(-517 2025)"/>
      <path id="Path_23" data-name="Path 23" class="cls-2" d="M477.7-1162.036s355.8,67.533,437.191-40.479,210.211-238.667,330.462-151.156,231.629,264.064,517.112,164.313c131.036-45.785,200.637-141.079,261.276-235.217,71.9-111.619,131.426-221.751,265.015-248.237,246.929-48.957,311.185,380.338,311.185,380.338" transform="translate(-536 2002)"/>
      <path id="Path_24" data-name="Path 24" class="cls-2" d="M442.83-1166.093S833.5-1094.5,914.89-1202.515s210.211-238.667,330.462-151.156,231.629,264.064,517.112,164.313c131.036-45.785,200.637-141.079,261.276-235.217,71.9-111.619,131.426-221.751,265.015-248.237,246.929-48.957,311.185,380.338,311.185,380.338" transform="translate(-489 2041)"/>
      <path id="Path_25" data-name="Path 25" class="cls-2" d="M442.83-1166.093S833.5-1094.5,914.89-1202.515s210.211-238.667,330.462-151.156,231.629,264.064,517.112,164.313c131.036-45.785,200.637-141.079,261.276-235.217,71.9-111.619,131.426-221.751,265.015-248.237,246.929-48.957,311.185,380.338,311.185,380.338" transform="translate(-463 2050)"/>
      <path id="Path_26" data-name="Path 26" class="cls-2" d="M442.83-1166.093S833.5-1094.5,914.89-1202.515s210.211-238.667,330.462-151.156,231.629,264.064,517.112,164.313c131.036-45.785,200.637-141.079,261.276-235.217,71.9-111.619,131.426-221.751,265.015-248.237,246.929-48.957,311.185,380.338,311.185,380.338" transform="translate(-443 2063)"/>
      <path id="Path_27" data-name="Path 27" class="cls-2" d="M669-1132.139s242.11,24.956,322.995-83.056,130.269-225.987,249.773-138.476,230.189,264.064,513.9,164.313c130.221-45.785,199.389-141.079,259.651-235.217,71.453-111.619,130.608-221.751,263.367-248.237,245.393-48.957,626.07,852.886,626.07,852.886" transform="translate(-748 1882)"/>
      <path id="Path_28" data-name="Path 28" class="cls-2" d="M669-1132.139s242.11,24.956,322.995-83.056,130.269-225.987,249.773-138.476,230.189,264.064,513.9,164.313c130.221-45.785,199.389-141.079,259.651-235.217,71.453-111.619,130.608-221.751,263.367-248.237,245.393-48.957,626.07,852.886,626.07,852.886" transform="translate(-771 1879)"/>
      <path id="Path_9" data-name="Path 9" class="cls-2" d="M657.864-1128.161" transform="translate(-744 1616)"/>
    </g>
  </g>
</svg>
